<?xml version="1.0" encoding="UTF-8"?>
<svg id="Layer_2" data-name="Layer 2" xmlns="http://www.w3.org/2000/svg" viewBox="0 0 107.7 42.36">
  <defs>
    <style>
      .cls-1 {
        fill: #ffab00;
      }

      .cls-2 {
        fill: #231f20;
      }
    </style>
  </defs>
  <g id="Wordmark">
    <g>
      <g>
        <path class="cls-2" d="M98.29,26.08c2.33,0,3.62,1.52,3.62,4.28v11.54h5.79v-13.4c0-4.8-2.62-7.66-7-7.66-3.06,0-4.77,1.68-6.05,3.31l-.09,.12v-3.04h-5.79v20.67h5.79v-11.54c0-2.72,1.36-4.28,3.73-4.28"/>
        <path class="cls-2" d="M80.92,31.68c0,1.55-.51,2.98-1.44,4.01-1,1.11-2.38,1.7-4,1.7s-2.97-.62-3.99-1.74c-.98-1.08-1.52-2.52-1.52-4.05v-.08c0-1.55,.51-2.98,1.44-4.01,1-1.11,2.38-1.7,4-1.7s2.97,.62,3.99,1.74c.98,1.08,1.53,2.52,1.53,4.05v.08Zm-5.44-10.84c-3.09,0-5.94,1.12-8.03,3.15-2.06,2.01-3.2,4.71-3.2,7.61v.08c0,2.9,1.13,5.58,3.17,7.57,2.07,2.01,4.9,3.12,7.98,3.12s5.94-1.12,8.03-3.15c2.06-2.01,3.2-4.71,3.2-7.61v-.08c0-2.9-1.13-5.58-3.17-7.57-2.07-2.01-4.9-3.12-7.98-3.12"/>
        <polygon class="cls-2" points="59.15 41.9 65.77 41.9 57.62 29.34 57.65 29.31 65.47 21.22 58.56 21.22 51.58 28.86 51.58 14.29 45.8 14.29 45.8 41.9 51.58 41.9 51.58 35.61 51.6 35.59 53.7 33.37 59.15 41.9"/>
        <path class="cls-2" d="M30.9,42.28c3.06,0,4.77-1.68,6.05-3.31l.09-.12v3.04h5.79V21.22h-5.79v11.54c0,2.72-1.36,4.28-3.73,4.28s-3.62-1.52-3.62-4.28v-11.54h-5.79v13.4c0,4.8,2.62,7.66,7,7.66"/>
        <polygon class="cls-2" points="19.98 14.86 13.36 25.51 13.31 25.44 6.85 14.86 0 14.86 10.39 30.94 10.39 41.9 16.25 41.9 16.25 30.82 16.26 30.81 26.64 14.86 19.98 14.86"/>
      </g>
      <polygon class="cls-1" points="75.43 0 73.36 6.65 68.87 1.33 69.5 8.26 63.32 5.07 66.56 11.23 59.62 10.64 64.97 15.1 58.34 17.21 64.03 18.98 68.93 13.75 70.93 15.89 75.48 11.03 80.03 15.89 82.04 13.75 86.88 18.93 92.63 17.09 85.99 15.02 91.31 10.53 84.38 11.16 87.57 4.98 81.41 8.22 81.99 1.28 77.54 6.63 75.43 0"/>
    </g>
  </g>
</svg>